<svg xmlns="http://www.w3.org/2000/svg" xml:space="preserve" viewBox="0 0 40 36"><path d="M9.8 8c1.8-.3 3-2 2.7-3.8-.3-1.8-2-3-3.8-2.8-1.8.3-3 2-2.7 3.8.3 1.9 2 3.1 3.8 2.8z"/><path d="m22 27.8-6.4-6.5c-.4-.5-1.6-8.1-1.7-8.4-.1-.8.1-1.3.1-1.3s3.2-8.3 3.6-9.3c.3-.9.3-1.5-.3-2s-1.7-.5-2 .3L11.8 9s-.9-.3-1.9-.2c-1 .2-1.7.8-1.7.8l-6-6.8c-.7-.7-1.5-.3-2 .3s-.2 1.4.3 2c.5.6 6.3 7.6 6.3 7.6s.4.4.5 1.2c0 .1 0 .1 1.3 7.7l.8 12.9c.1.8.8 1.5 1.6 1.5h.1c.9-.1 1.5-.8 1.5-1.7 0 0-.8-11.2-.8-11.6 0-.3.2-.4.5-.1.3.3 7.3 7.4 7.3 7.4.6.6 1.6.6 2.2 0 .8-.6.8-1.6.2-2.2zM29.3 11.1c0 .1 0 .1 0 0 0 .1 0 .1 0 0 0 .1 0 .1 0 0 .1.1.1.1 0 0 .1.1.1.1 0 0 1.4.5 2.9-.3 3.3-1.6.5-1.3-.2-2.8-1.6-3.3-1.3-.4-2.8.3-3.3 1.6s.2 2.9 1.6 3.3z"/><path d="M40 12.2c-.1-.6-.7-.9-1.7-.6l-7.8.8s-.4-.4-1.3-.8c-.9-.3-1.5-.2-1.5-.2L22 6c-.7-.8-1.3-1-1.8-.6-.6.5-.7 1.2-.3 1.6.5.6 5.5 5.8 5.7 6.1.2.3.1.4-.1 1-.1.3-1.4 4-1.9 5.4L17 24.1c-.6.4-.7 1.2-.3 1.8.4.6 1.2.7 1.8.3 0 0 7-4.7 7.2-4.9.2-.1.4 0 .3.2-.1.2-3 9.5-3 9.5-.2.7.2 1.4.8 1.6.1 0 .3.1.4.1.5 0 1-.3 1.2-.9l3.3-10.5v-.1c1.9-5.5 1.9-5.5 1.8-5.3.2-.6.2-.7.5-.9.3-.1 7.5-1.1 8.2-1.3.6-.1.9-.8.8-1.5z"/></svg>