<svg xmlns="http://www.w3.org/2000/svg" xml:space="preserve" viewBox="0 0 40 36"><path d="M40 19.2c0-.4-.1-.8-.1-1.2-.1-.6-.4-1.1-.9-1.4-.3-.2-.7-.2-1.1-.1v-3.8c0-1.4 0-2.8.1-4.2 0-.5-.3-.9-.7-1.1 0-.5-.1-1.1-.1-1.6 0-.3-.1-.6-.1-.9v-.2c0-.2-.1-.4-.2-.6-.1-.2-.2-.4-.5-.5-.2-.1-.3-.1-.5-.2h-.5c0-.5-.1-1-.1-1.6.1-.1.1-.3.1-.4 0-.6-.5-1.1-1.1-1.1h-3.7c-1.1 0-2.2-.1-3.3-.1h-7.1c-2.3 0-4.6-.1-6.9-.1H9.9C8.8 0 7.8 0 6.7.1 5.5.2 4.3.5 3.2.9c-1.1.5-2 1.4-2.4 2.5-.1.3-.1.6-.2 1 0 .3-.1.5 0 .8 0 .3.1.7.2 1-.4.2-.6.6-.6 1v3.7c0 1.1 0 2.2-.1 3.3V21c0 1.6.1 3.1.1 4.7v4.7c0 .2.1.4.2.5.2.6.5 1.2.8 1.8.1.2.3.4.4.7.1.2.3.4.4.6.2.3.6.5.9.7.7.4 1.5.7 2.3.9l2.1.3c1.3.1 2.6.1 3.8.1h11c1.3 0 2.6-.1 3.8-.1h10.6c.4 0 .7-.2 1-.5.3-.2.5-.5.5-.9v-8.6c.4-.1.7-.2 1-.4.7-.6.8-1.5.9-2.4 0-.5 0-1 .1-1.6v-2.3zM35 5.6c.1.5.1 1.1.1 1.6h-1.8c-1.1 0-2.2 0-3.4-.1-2.2 0-4.5-.1-6.7-.1-2.4 0-4.8 0-7.2-.1-1.5-.1-3.1 0-4.6 0H8.9c-.5.1-1.1.1-1.6.1V5.2c2.3.1 4.5.1 6.8.1 1.2 0 2.3 0 3.5.1 1.1 0 2.1.1 3.2.1s2.2.1 3.4.1c1.1 0 2.2 0 3.4.1H31c1 0 2 0 3 .1.2-.2.6-.2 1-.2zm-32.1-1c.1-.2.1-.4.2-.6 0-.1.1-.2.1-.2.1-.2.3-.3.4-.4.2-.2.4-.3.7-.4.7-.3 1.5-.5 2.2-.6 1.1-.1 2.1-.2 3.2-.2h17.1c1.1 0 2.2 0 3.4.1.9.1 1.9.1 2.8.1 0 .3 0 .5.1.8H26.2c-1.2 0-2.3 0-3.5-.1-1.1 0-2.2 0-3.3-.1-1.1 0-2.2-.1-3.4-.1h-3.4c-2.1 0-4.2-.1-6.3-.2-.5 0-1 .5-1 1-.2.3-.4.7-.4 1.1 0 .7 0 1.4.1 2h-.1c-.4 0-.8-.1-1.1-.2-.1-.1-.2-.1-.3-.2-.1 0-.1-.1-.2-.2s-.1-.2-.2-.4-.1-.4-.2-.6v-.6zM33 33.4c-1.2 0-2.4 0-3.6.1-2.6 0-5.1.1-7.7.2h-11c-1.3 0-2.6 0-3.8-.1h-.3c-.7-.1-1.4-.2-2-.5-.3-.1-.5-.3-.8-.4-.2-.1-.3-.3-.5-.5-.1-.2-.2-.3-.4-.5.1-.3 0-.5-.1-.7-.1-.3-.2-.5-.3-.8-.1-.2-.1-.3-.2-.4v-6c0-1.1 0-2.2-.1-3.3v-8.3c0-1.3.1-2.5.1-3.8.1 0 .1.1.2.1.6.3 1.3.4 2 .5.6.1 1.1.1 1.7.1h7.1c1.2 0 2.4 0 3.6.1h7c1.2 0 2.3.1 3.5.1 2.2.1 4.4.1 6.6.2h1.6v6.6c-.7 0-1.4-.1-2.2-.1h-1.9c-.6 0-1.2.1-1.8.1-.7.1-1.3.4-1.9.7-.4.3-.7.6-1 1-.2.2-.3.6-.4.9-.1.3-.2.6-.2.9-.2.8-.2 1.6-.1 2.5 0 .2.1.4.2.6.2.5.4.9.8 1.3.3.3.6.6 1 .8.2.2.5.3.7.4.3.2.7.3 1.1.4.7.2 1.3.2 2 .3H35.6c0 2.5.1 4.9.1 7.4-.9.1-1.8.1-2.7.1zm4.5-12.7v2.6c0 .1 0 .2-.1.3H34.5c-1.1 0-2.3 0-3.4-.1-.3-.1-.7-.1-1-.3-.3-.2-.6-.3-.9-.6l-.3-.3c-.1-.1-.1-.2-.2-.3-.1-.1-.1-.3-.1-.4v-1c.1-.4.1-.7.3-1.1 0-.1.1-.2.1-.2l.2-.2c.1-.1.2-.1.4-.2l.9-.3c.5-.1 1-.1 1.5-.1h1.6c1.2 0 2.5.1 3.7.2h.2c.1.6.1 1.3 0 2zm.1 2.8z"/><path d="M31.3 19.7c-.7 0-1.2.6-1.2 1.2 0 .7.6 1.2 1.2 1.2.7 0 1.2-.6 1.2-1.2 0-.7-.5-1.2-1.2-1.2z"/></svg>