<svg xmlns="http://www.w3.org/2000/svg" xml:space="preserve" viewBox="0 0 122.9 96"><path d="M12.8 22.5h25.5L59.5 1.2c1.6-1.6 4.1-1.6 5.7 0 .8.7 1.2 1.8 1.2 2.8v88c0 2.2-1.7 4-3.9 4.1-1.1 0-2.2-.4-3-1.2l-20.9-17H12.8C5.7 77.8 0 72.1 0 65V35.3c0-7.1 5.7-12.8 12.8-12.8zm100.6 8c2.1-2.2 5.6-2.2 7.7-.1l.1.1c2.2 2.2 2.2 5.7 0 7.9l-9.4 9.6 9.4 9.6c2.1 2.2 2.1 5.7-.1 7.9-2.1 2.2-5.6 2.2-7.8 0l-9.4-9.5-9.4 9.6c-2.1 2.2-5.6 2.2-7.8 0s-2.2-5.7 0-7.9l9.5-9.6-9.5-9.6c-2.1-2.2-2.1-5.7.1-7.8 2.1-2.2 5.6-2.2 7.7-.1l.1.1 9.4 9.5 9.4-9.7z"/></svg>