<svg xmlns="http://www.w3.org/2000/svg"><symbol id="icon-arrow" viewBox="0 0 10 16"><title>arrow</title><path d="M10 8 1.7 0 0 1.6 6.7 8 0 14.4 1.7 16 10 8z"/></symbol><symbol id="icon-back" viewBox="0 0 13.2 12.9"><title>back</title><path d="M13.2 5.5v1.8H3l4.5 4.4-1.1 1.1L0 6.4 6.4 0l1.1 1.1L3 5.5h10.2z"/></symbol><symbol id="icon-fb" viewBox="0 0 16 16"><title>fb</title><path d="M2.9 0C1.3 0 0 1.3 0 2.9v10.2C0 14.7 1.3 16 2.9 16h5.5V9.7H6.8V7.5h1.7V5.6c0-1.5 1-2.9 3.2-2.9.5 0 1.1 0 1.6.1l-.1 2.1h-1.4c-.8 0-.9.4-.9 1v1.6h2.4l-.1 2.3h-2.3V16h2.3c1.6 0 2.9-1.3 2.9-2.9V2.9C16 1.3 14.7 0 13.1 0H2.9z"/></symbol><symbol id="icon-home" viewBox="0 0 40 40"><title>home</title><path d="M20 0 0 20.2V24h4.8v16H17v-9.8h6V40h12.1V24.1H40v-3.8L20 0zm11.5 20.4v15.9h-4.8v-9.8H13.3v9.8H8.5V20.4H5L20 5.2l15 15.2h-3.5z"/></symbol><symbol id="icon-instagram" viewBox="0 0 16 16"><title>instagram</title><path d="M8 5.3C6.5 5.3 5.3 6.5 5.3 8c0 1.5 1.2 2.7 2.7 2.7s2.7-1.2 2.7-2.7c0-1.5-1.2-2.7-2.7-2.7zM16 8c0-1.1 0-2.2-.1-3.3 0-1.2-.4-2.4-1.3-3.4C13.7.4 12.5 0 11.2 0H8C6.9 0 5.8 0 4.7.1 3.5 0 2.3.5 1.3 1.3.5 2.2 0 3.5.1 4.7 0 5.8 0 6.9 0 8s0 2.2.1 3.3c0 1.2.4 2.4 1.3 3.4.9.9 2.1 1.3 3.4 1.3H8c1.1 0 2.2 0 3.3-.1 1.2 0 2.4-.4 3.4-1.3.9-.9 1.3-2.1 1.3-3.4V8zm-8 4.1c-2.3 0-4.1-1.8-4.1-4.1S5.7 3.9 8 3.9s4.1 1.8 4.1 4.1-1.8 4.1-4.1 4.1zm4.3-7.4c-.5 0-1-.4-1-1 0-.5.4-1 1-1 .5 0 1 .4 1 1 0 .4-.2.7-.6.9-.2.1-.3.1-.4.1z"/></symbol><symbol id="icon-laughing" viewBox="0 0 59 58"><title>laughing</title><g fill="none" fill-rule="evenodd"><circle cx="30" cy="29" fill="#f0c419" r="29"/><path d="M46.14 36.74A57.909 57.909 0 0 1 30 39a57.909 57.909 0 0 1-16.14-2.26l-2.8 6.66C13.46 48.48 18.68 54 30 54s16.54-5.52 18.94-10.6z" fill="#802f34"/><path d="M11 13.988a1 1 0 0 1-.949-1.317 6.492 6.492 0 0 1 3.429-4.124 8.112 8.112 0 0 1 5.911.071 1 1 0 0 1-.78 1.842 6.147 6.147 0 0 0-4.319-.085 4.588 4.588 0 0 0-2.343 2.925 1 1 0 0 1-.949.688zm38 0a1 1 0 0 1-.949-.684 4.588 4.588 0 0 0-2.343-2.929 6.151 6.151 0 0 0-4.32.085 1 1 0 0 1-.779-1.842 8.114 8.114 0 0 1 5.911-.071 6.492 6.492 0 0 1 3.429 4.124A1 1 0 0 1 49 13.988z" fill="#e57e25"/><path d="M11.8 42.592A6 6 0 1 1 2.2 35.4c1.972-2.634 6.544-4.4 9.439-5.307a2 2 0 0 1 2.6 1.947c-.053 3.032-.464 7.917-2.439 10.552zm36.4 0a6 6 0 0 0 9.6-7.192c-1.972-2.634-6.544-4.4-9.44-5.307a2 2 0 0 0-2.6 1.947c.054 3.032.464 7.917 2.44 10.552z" fill="#2fa8cc"/><path d="M12 27a1 1 0 0 1-.641-1.767c.066-.055 6.649-5.427 13.2-1.064a1 1 0 1 1-1.11 1.664c-5.29-3.526-10.583.754-10.806.938A1 1 0 0 1 12 27zm36 0a1 1 0 0 1-.639-.23c-.223-.184-5.516-4.465-10.806-.938a1 1 0 1 1-1.11-1.664c6.546-4.365 13.129 1.009 13.2 1.064A1 1 0 0 1 48 27z" fill="#35495e"/><path d="M5.586 41.593a1 1 0 0 1-.707-.293 3 3 0 0 1 0-4.242 1 1 0 0 1 1.414 1.414 1 1 0 0 0 0 1.413 1 1 0 0 1-.706 1.708zm48.829 0a1 1 0 0 1-.707-1.707 1 1 0 0 0 0-1.413 1 1 0 1 1 1.413-1.415 3 3 0 0 1 0 4.242 1 1 0 0 1-.706.293z" fill="#67b9cc"/><path d="M41.86 51.2A23.272 23.272 0 0 1 30 54a23.272 23.272 0 0 1-11.86-2.8A10.445 10.445 0 0 1 26 47c1.6-.126 3.14.644 4 2a4.333 4.333 0 0 1 4-2 10.445 10.445 0 0 1 7.86 4.2z" fill="#ff5364"/><path d="m44.69 37.14-.35 2.49a4 4 0 0 1-2.99 3.32A48.971 48.971 0 0 1 30 44c-3.811.093-7.62-.26-11.35-1.05a4 4 0 0 1-2.99-3.32l-.35-2.49A58.417 58.417 0 0 0 30 39c4.956.006 9.892-.62 14.69-1.86z" fill="#ecf0f1"/></g></symbol><symbol id="icon-party" viewBox="0 0 40 36"><title>party</title><path d="M9.8 8c1.8-.3 3-2 2.7-3.8-.3-1.8-2-3-3.8-2.8-1.8.3-3 2-2.7 3.8.3 1.9 2 3.1 3.8 2.8z"/><path d="m22 27.8-6.4-6.5c-.4-.5-1.6-8.1-1.7-8.4-.1-.8.1-1.3.1-1.3s3.2-8.3 3.6-9.3c.3-.9.3-1.5-.3-2s-1.7-.5-2 .3L11.8 9s-.9-.3-1.9-.2c-1 .2-1.7.8-1.7.8l-6-6.8c-.7-.7-1.5-.3-2 .3s-.2 1.4.3 2c.5.6 6.3 7.6 6.3 7.6s.4.4.5 1.2c0 .1 0 .1 1.3 7.7l.8 12.9c.1.8.8 1.5 1.6 1.5h.1c.9-.1 1.5-.8 1.5-1.7 0 0-.8-11.2-.8-11.6 0-.3.2-.4.5-.1.3.3 7.3 7.4 7.3 7.4.6.6 1.6.6 2.2 0 .8-.6.8-1.6.2-2.2zm7.3-16.7c0 .1 0 .1 0 0 0 .1 0 .1 0 0 0 .1 0 .1 0 0 .1.1.1.1 0 0 .1.1.1.1 0 0 1.4.5 2.9-.3 3.3-1.6.5-1.3-.2-2.8-1.6-3.3-1.3-.4-2.8.3-3.3 1.6s.2 2.9 1.6 3.3z"/><path d="M40 12.2c-.1-.6-.7-.9-1.7-.6l-7.8.8s-.4-.4-1.3-.8c-.9-.3-1.5-.2-1.5-.2L22 6c-.7-.8-1.3-1-1.8-.6-.6.5-.7 1.2-.3 1.6.5.6 5.5 5.8 5.7 6.1.2.3.1.4-.1 1-.1.3-1.4 4-1.9 5.4L17 24.1c-.6.4-.7 1.2-.3 1.8.4.6 1.2.7 1.8.3 0 0 7-4.7 7.2-4.9.2-.1.4 0 .3.2-.1.2-3 9.5-3 9.5-.2.7.2 1.4.8 1.6.1 0 .3.1.4.1.5 0 1-.3 1.2-.9l3.3-10.5v-.1c1.9-5.5 1.9-5.5 1.8-5.3.2-.6.2-.7.5-.9.3-.1 7.5-1.1 8.2-1.3.6-.1.9-.8.8-1.5z"/></symbol><symbol id="icon-pay" viewBox="0 0 40 36"><title>pay</title><path d="M40 19.2c0-.4-.1-.8-.1-1.2-.1-.6-.4-1.1-.9-1.4-.3-.2-.7-.2-1.1-.1v-3.8c0-1.4 0-2.8.1-4.2 0-.5-.3-.9-.7-1.1 0-.5-.1-1.1-.1-1.6 0-.3-.1-.6-.1-.9v-.2c0-.2-.1-.4-.2-.6-.1-.2-.2-.4-.5-.5-.2-.1-.3-.1-.5-.2h-.5c0-.5-.1-1-.1-1.6.1-.1.1-.3.1-.4 0-.6-.5-1.1-1.1-1.1h-3.7c-1.1 0-2.2-.1-3.3-.1h-7.1c-2.3 0-4.6-.1-6.9-.1H9.9C8.8 0 7.8 0 6.7.1 5.5.2 4.3.5 3.2.9c-1.1.5-2 1.4-2.4 2.5-.1.3-.1.6-.2 1 0 .3-.1.5 0 .8 0 .3.1.7.2 1-.4.2-.6.6-.6 1v3.7c0 1.1 0 2.2-.1 3.3V21c0 1.6.1 3.1.1 4.7v4.7c0 .2.1.4.2.5.2.6.5 1.2.8 1.8.1.2.3.4.4.7.1.2.3.4.4.6.2.3.6.5.9.7.7.4 1.5.7 2.3.9l2.1.3c1.3.1 2.6.1 3.8.1h11c1.3 0 2.6-.1 3.8-.1h10.6c.4 0 .7-.2 1-.5.3-.2.5-.5.5-.9v-8.6c.4-.1.7-.2 1-.4.7-.6.8-1.5.9-2.4 0-.5 0-1 .1-1.6v-2.3zM35 5.6c.1.5.1 1.1.1 1.6h-1.8c-1.1 0-2.2 0-3.4-.1-2.2 0-4.5-.1-6.7-.1-2.4 0-4.8 0-7.2-.1-1.5-.1-3.1 0-4.6 0H8.9c-.5.1-1.1.1-1.6.1V5.2c2.3.1 4.5.1 6.8.1 1.2 0 2.3 0 3.5.1 1.1 0 2.1.1 3.2.1s2.2.1 3.4.1c1.1 0 2.2 0 3.4.1H31c1 0 2 0 3 .1.2-.2.6-.2 1-.2zm-32.1-1c.1-.2.1-.4.2-.6 0-.1.1-.2.1-.2.1-.2.3-.3.4-.4.2-.2.4-.3.7-.4.7-.3 1.5-.5 2.2-.6 1.1-.1 2.1-.2 3.2-.2h17.1c1.1 0 2.2 0 3.4.1.9.1 1.9.1 2.8.1 0 .3 0 .5.1.8h-6.9c-1.2 0-2.3 0-3.5-.1-1.1 0-2.2 0-3.3-.1-1.1 0-2.2-.1-3.4-.1h-3.4c-2.1 0-4.2-.1-6.3-.2-.5 0-1 .5-1 1-.2.3-.4.7-.4 1.1 0 .7 0 1.4.1 2h-.1c-.4 0-.8-.1-1.1-.2-.1-.1-.2-.1-.3-.2-.1 0-.1-.1-.2-.2s-.1-.2-.2-.4-.1-.4-.2-.6v-.6zM33 33.4c-1.2 0-2.4 0-3.6.1-2.6 0-5.1.1-7.7.2h-11c-1.3 0-2.6 0-3.8-.1h-.3c-.7-.1-1.4-.2-2-.5-.3-.1-.5-.3-.8-.4-.2-.1-.3-.3-.5-.5-.1-.2-.2-.3-.4-.5.1-.3 0-.5-.1-.7-.1-.3-.2-.5-.3-.8-.1-.2-.1-.3-.2-.4v-6c0-1.1 0-2.2-.1-3.3v-8.3c0-1.3.1-2.5.1-3.8.1 0 .1.1.2.1.6.3 1.3.4 2 .5.6.1 1.1.1 1.7.1h7.1c1.2 0 2.4 0 3.6.1h7c1.2 0 2.3.1 3.5.1 2.2.1 4.4.1 6.6.2h1.6v6.6c-.7 0-1.4-.1-2.2-.1h-1.9c-.6 0-1.2.1-1.8.1-.7.1-1.3.4-1.9.7-.4.3-.7.6-1 1-.2.2-.3.6-.4.9-.1.3-.2.6-.2.9-.2.8-.2 1.6-.1 2.5 0 .2.1.4.2.6.2.5.4.9.8 1.3.3.3.6.6 1 .8.2.2.5.3.7.4.3.2.7.3 1.1.4.7.2 1.3.2 2 .3h3.7c0 2.5.1 4.9.1 7.4-.9.1-1.8.1-2.7.1zm4.5-12.7v2.6c0 .1 0 .2-.1.3h-2.9c-1.1 0-2.3 0-3.4-.1-.3-.1-.7-.1-1-.3-.3-.2-.6-.3-.9-.6l-.3-.3c-.1-.1-.1-.2-.2-.3-.1-.1-.1-.3-.1-.4v-1c.1-.4.1-.7.3-1.1 0-.1.1-.2.1-.2l.2-.2c.1-.1.2-.1.4-.2l.9-.3c.5-.1 1-.1 1.5-.1h1.6c1.2 0 2.5.1 3.7.2h.2c.1.6.1 1.3 0 2zm.1 2.8z"/><path d="M31.3 19.7c-.7 0-1.2.6-1.2 1.2 0 .7.6 1.2 1.2 1.2.7 0 1.2-.6 1.2-1.2 0-.7-.5-1.2-1.2-1.2z"/></symbol><symbol id="icon-ticket" viewBox="0 0 40 25"><title>ticket</title><path d="m38 11.4 2-.1V5.1C40 2.3 37.7 0 34.9 0H5.1C2.3 0 0 2.3 0 5.1v6.1l1.8.3c.5.1.9.5.9 1.1s-.4 1-.9 1.1l-1.8.1v6.1C0 22.7 2.3 25 5.1 25h29.8c2.8 0 5.1-2.3 5.1-5.1v-6.2l-2-.1c-.6 0-1-.5-1-1.1 0-.6.4-1.1 1-1.1zm-.6 4.7v3.8c0 1.4-1.1 2.5-2.5 2.5H5.1c-1.4 0-2.5-1.1-2.5-2.5V16c1.6-.4 2.7-1.9 2.7-3.5 0-1.7-1.1-3.1-2.7-3.5V5.1c0-1.4 1.1-2.5 2.5-2.5h29.8c1.4 0 2.5 1.1 2.5 2.5v3.8c-1.7.3-3 1.8-3 3.6s1.3 3.3 3 3.6z"/><path d="M10.2 18.3h-.7V21h1.7v-2.7h-.6zm0-4.8h-.7v2.7h1.7v-2.7h-.6zm0-4.7h-.7v2.7h1.7V8.8h-.6zm0-4.8h-.7v2.7h1.7V4h-.6z"/></symbol><symbol id="icon-twitter" viewBox="0 0 24 20"><title>twitter</title><path d="M24 2.4c-.9.4-1.8.7-2.8.8 1-.6 1.8-1.6 2.2-2.8-1 .6-2 1-3.1 1.2C19.3.6 18 0 16.6 0c-2.7 0-4.9 2.3-4.9 5 0 .4 0 .8.1 1.2C7.7 6 4.1 4 1.7.9c-.5.8-.7 1.6-.7 2.6 0 1.7.9 3.3 2.2 4.2-.8-.1-1.6-.3-2.2-.7v.1c0 2.5 1.7 4.5 3.9 5-.4.1-.8.2-1.3.2-.3 0-.6 0-.9-.1.6 2 2.4 3.5 4.6 3.5-1.7 1.3-3.8 2.2-6.1 2.2-.4 0-.8 0-1.2-.1C2.2 19.2 4.8 20 7.5 20c9.1 0 14-7.7 14-14.4v-.7c1-.6 1.8-1.5 2.5-2.5z"/></symbol><symbol id="icon-volume-mute" viewBox="0 0 122.9 96"><title>volume-mute</title><path d="M12.8 22.5h25.5L59.5 1.2c1.6-1.6 4.1-1.6 5.7 0 .8.7 1.2 1.8 1.2 2.8v88c0 2.2-1.7 4-3.9 4.1-1.1 0-2.2-.4-3-1.2l-20.9-17H12.8C5.7 77.8 0 72.1 0 65V35.3c0-7.1 5.7-12.8 12.8-12.8zm100.6 8c2.1-2.2 5.6-2.2 7.7-.1l.1.1c2.2 2.2 2.2 5.7 0 7.9l-9.4 9.6 9.4 9.6c2.1 2.2 2.1 5.7-.1 7.9-2.1 2.2-5.6 2.2-7.8 0l-9.4-9.5-9.4 9.6c-2.1 2.2-5.6 2.2-7.8 0s-2.2-5.7 0-7.9l9.5-9.6-9.5-9.6c-2.1-2.2-2.1-5.7.1-7.8 2.1-2.2 5.6-2.2 7.7-.1l.1.1 9.4 9.5 9.4-9.7z"/></symbol><symbol id="icon-volume" viewBox="0 0 15.3 16.9"><title>volume</title><path fill="#ffff" d="M4 4.7H0v7.4h4c.6 0 1.3.2 1.7.6l4.9 4.1V0L5.7 4.1c-.4.5-1.1.7-1.7.6zm.4 1.7c.9 0 1.8-.3 2.4-1L9 3.5v9.9l-2.2-1.9c-.6-.7-1.5-1-2.4-1H1.7V6.4h2.7zM12 10v1.7c1.8 0 3.3-1.5 3.3-3.3S13.8 5.1 12 5.1v1.7c.9 0 1.6.7 1.6 1.6 0 .9-.7 1.6-1.6 1.6z"/></symbol><symbol id="icon-yt" viewBox="0 0 22.7 16"><title>yt</title><path d="M21.8 1.4C21 .4 19.5 0 16.6 0H6.1C3.1 0 1.6.4.8 1.5 0 2.5 0 4 0 6v4c0 4 .9 6 6.1 6h10.5c2.5 0 3.9-.4 4.8-1.2.9-.9 1.3-2.3 1.3-4.8V6c0-2.1 0-3.6-.9-4.6zm-7.2 7.1L9.8 11c-.4.2-.8 0-1-.3-.1-.1-.1-.2-.1-.3v-5c0-.4.3-.7.7-.7.1 0 .2 0 .3.1l4.8 2.5c.4.2.5.6.3 1 0 .1-.1.2-.2.2z"/></symbol></svg>