<svg xmlns="http://www.w3.org/2000/svg" viewBox="0 0 16 16" xml:space="preserve"><path d="M8 5.3C6.5 5.3 5.3 6.5 5.3 8c0 1.5 1.2 2.7 2.7 2.7s2.7-1.2 2.7-2.7c0-1.5-1.2-2.7-2.7-2.7zM16 8c0-1.1 0-2.2-.1-3.3 0-1.2-.4-2.4-1.3-3.4C13.7.4 12.5 0 11.2 0H8C6.9 0 5.8 0 4.7.1 3.5 0 2.3.5 1.3 1.3.5 2.2 0 3.5.1 4.7 0 5.8 0 6.9 0 8s0 2.2.1 3.3c0 1.2.4 2.4 1.3 3.4.9.9 2.1 1.3 3.4 1.3H8c1.1 0 2.2 0 3.3-.1 1.2 0 2.4-.4 3.4-1.3.9-.9 1.3-2.1 1.3-3.4V8zm-8 4.1c-2.3 0-4.1-1.8-4.1-4.1S5.7 3.9 8 3.9s4.1 1.8 4.1 4.1-1.8 4.1-4.1 4.1zm4.3-7.4c-.5 0-1-.4-1-1 0-.5.4-1 1-1 .5 0 1 .4 1 1 0 .4-.2.7-.6.9-.2.1-.3.1-.4.1z"/></svg>