<svg xmlns="http://www.w3.org/2000/svg" xml:space="preserve" viewBox="0 0 40 25"><path d="m38 11.4 2-.1V5.1C40 2.3 37.7 0 34.9 0H5.1C2.3 0 0 2.3 0 5.1v6.1l1.8.3c.5.1.9.5.9 1.1s-.4 1-.9 1.1l-1.8.1v6.1C0 22.7 2.3 25 5.1 25h29.8c2.8 0 5.1-2.3 5.1-5.1v-6.2l-2-.1c-.6 0-1-.5-1-1.1 0-.6.4-1.1 1-1.1zm-.6 4.7v3.8c0 1.4-1.1 2.5-2.5 2.5H5.1c-1.4 0-2.5-1.1-2.5-2.5V16c1.6-.4 2.7-1.9 2.7-3.5 0-1.7-1.1-3.1-2.7-3.5V5.1c0-1.4 1.1-2.5 2.5-2.5h29.8c1.4 0 2.5 1.1 2.5 2.5v3.8c-1.7.3-3 1.8-3 3.6s1.3 3.3 3 3.6z"/><path d="M10.2 18.3h-.7V21H11.2v-2.7h-.6zM10.2 13.5h-.7v2.7H11.2v-2.7h-.6zM10.2 8.8h-.7v2.7H11.2V8.8h-.6zM10.2 4h-.7v2.7H11.2V4h-.6z"/></svg>