<?xml version="1.0" standalone="no"?>
<!DOCTYPE svg PUBLIC "-//W3C//DTD SVG 20010904//EN"
 "http://www.w3.org/TR/2001/REC-SVG-20010904/DTD/svg10.dtd">
<svg version="1.0" xmlns="http://www.w3.org/2000/svg"
 width="500.000000pt" height="500.000000pt" viewBox="0 0 500.000000 500.000000"
 preserveAspectRatio="xMidYMid meet">
<metadata>
Created by potrace 1.14, written by Peter Selinger 2001-2017
</metadata>
<g transform="translate(0.000000,500.000000) scale(0.100000,-0.100000)"
fill="#000000" stroke="none">
<path d="M1121 3584 c-101 -21 -170 -75 -216 -168 -26 -53 -49 -151 -39 -167
3 -5 57 -9 120 -9 l114 0 1 48 c1 38 2 42 9 22 l8 -25 2 25 c2 23 5 44 8 78 1
7 6 11 11 7 5 -3 12 5 14 17 2 13 5 -19 6 -69 0 -55 5 -93 11 -93 6 0 10 37
10 90 0 52 4 90 10 90 5 0 8 -35 7 -86 -1 -47 1 -88 5 -90 4 -3 8 36 8 86 0
80 2 91 16 86 9 -3 18 -6 20 -6 2 0 4 -10 4 -22 0 -19 2 -20 10 -8 7 11 10 4
10 -27 0 -29 4 -42 13 -40 7 1 12 -9 13 -23 3 -65 -6 -60 120 -60 l116 0 -6
46 c-26 218 -194 341 -405 298z"/>
<path d="M182 3413 l3 -168 110 0 110 0 1 70 c2 116 7 126 14 25 l6 -95 2 88
2 88 28 -4 c44 -6 62 -18 62 -41 0 -17 2 -18 10 -6 8 12 10 11 10 -7 0 -12 7
-28 15 -37 8 -8 15 -31 15 -50 l0 -36 114 0 c63 0 117 4 120 9 3 5 -1 29 -8
55 -8 25 -12 46 -9 46 15 0 -68 128 -102 156 -77 63 -100 68 -313 72 l-192 4
2 -169z"/>
<path d="M1599 3533 c-1 -59 2 -107 7 -112 2 -2 62 -4 134 -3 71 0 132 -2 134
-6 2 -4 -22 -40 -55 -81 -32 -40 -59 -77 -59 -82 0 -5 51 -9 114 -9 l114 0 44
53 c105 125 118 149 118 221 l0 66 -275 0 -275 0 -1 -47z"/>
<path d="M2180 3575 c0 -5 74 -228 96 -292 l16 -43 104 0 c57 0 104 3 104 8 0
4 -14 54 -31 112 -17 58 -38 131 -47 163 l-16 57 -113 0 c-62 0 -113 -2 -113
-5z"/>
<path d="M2630 3463 c-17 -65 -38 -138 -46 -162 -8 -25 -14 -48 -14 -53 0 -4
38 -8 83 -8 l84 0 22 73 c12 39 34 108 47 152 13 44 27 88 30 98 5 15 -3 17
-84 17 l-89 0 -33 -117z"/>
<path d="M2900 3410 l0 -171 108 3 107 3 2 168 1 167 -109 0 -109 0 0 -170z"/>
<path d="M3306 3572 c-2 -4 -4 -80 -3 -167 l2 -160 83 -3 82 -3 1 33 c1 41 1
278 0 296 -1 14 -156 18 -165 4z"/>
<path d="M3589 3553 c-4 -86 -4 -281 -1 -295 4 -17 23 -18 221 -18 120 0 220
3 224 6 3 3 -3 22 -13 42 -16 30 -17 39 -7 54 51 71 157 229 157 233 0 3 -43
5 -95 5 l-96 0 -92 -141 -92 -141 -3 141 -3 141 -99 0 -100 0 -1 -27z"/>
<path d="M4200 3572 c0 -4 13 -28 28 -53 15 -24 43 -71 62 -104 53 -94 55 -98
79 -137 l23 -38 141 0 142 0 33 63 c106 198 133 257 127 266 -3 6 -39 11 -85
11 l-79 0 -33 -57 c-18 -32 -44 -82 -57 -110 -14 -29 -27 -53 -30 -53 -3 0
-31 49 -62 108 l-56 107 -117 3 c-64 1 -116 -1 -116 -6z"/>
<path d="M445 3400 c3 -5 8 -10 11 -10 2 0 4 5 4 10 0 6 -5 10 -11 10 -5 0 -7
-4 -4 -10z"/>
<path d="M471 3384 c0 -11 3 -14 6 -6 3 7 2 16 -1 19 -3 4 -6 -2 -5 -13z"/>
<path d="M502 3365 c0 -16 2 -22 5 -12 2 9 2 23 0 30 -3 6 -5 -1 -5 -18z"/>
<path d="M1220 3381 c0 -6 4 -13 10 -16 6 -3 7 1 4 9 -7 18 -14 21 -14 7z"/>
<path d="M451 3364 c0 -11 3 -14 6 -6 3 7 2 16 -1 19 -3 4 -6 -2 -5 -13z"/>
<path d="M1135 3360 c3 -5 8 -10 11 -10 2 0 4 5 4 10 0 6 -5 10 -11 10 -5 0
-7 -4 -4 -10z"/>
<path d="M522 3325 c0 -16 2 -22 5 -12 2 9 2 23 0 30 -3 6 -5 -1 -5 -18z"/>
<path d="M1223 3300 c0 -30 2 -43 4 -27 2 15 2 39 0 55 -2 15 -4 2 -4 -28z"/>
<path d="M1253 3300 c0 -30 2 -43 4 -27 2 15 2 39 0 55 -2 15 -4 2 -4 -28z"/>
<path d="M495 3321 c-3 -5 -1 -12 5 -16 5 -3 10 1 10 9 0 18 -6 21 -15 7z"/>
<path d="M1137 3323 c-3 -5 -1 -17 4 -28 6 -17 7 -16 6 8 -1 28 -3 32 -10 20z"/>
<path d="M452 3290 c0 -14 2 -19 5 -12 2 6 2 18 0 25 -3 6 -5 1 -5 -13z"/>
<path d="M547 3291 c-4 -17 -3 -21 5 -13 5 5 8 16 6 23 -3 8 -7 3 -11 -10z"/>
<path d="M1270 3299 c0 -5 5 -7 10 -4 6 3 10 8 10 11 0 2 -4 4 -10 4 -5 0 -10
-5 -10 -11z"/>
<path d="M502 3270 c0 -14 2 -19 5 -12 2 6 2 18 0 25 -3 6 -5 1 -5 -13z"/>
<path d="M470 3265 c0 -8 4 -15 10 -15 5 0 7 7 4 15 -4 8 -8 15 -10 15 -2 0
-4 -7 -4 -15z"/>
<path d="M1111 3264 c0 -11 3 -14 6 -6 3 7 2 16 -1 19 -3 4 -6 -2 -5 -13z"/>
<path d="M1271 3264 c0 -11 3 -14 6 -6 3 7 2 16 -1 19 -3 4 -6 -2 -5 -13z"/>
<path d="M1135 3260 c-3 -5 -1 -10 4 -10 6 0 11 5 11 10 0 6 -2 10 -4 10 -3 0
-8 -4 -11 -10z"/>
<path d="M184 3216 c-3 -7 -3 -84 -2 -171 l3 -160 160 0 c88 -1 179 3 203 8
91 19 172 85 220 179 28 55 43 135 28 147 -6 4 -58 8 -116 7 l-105 -1 -3 -42
c-2 -31 -8 -43 -19 -43 -11 0 -14 -7 -10 -26 3 -18 1 -24 -9 -20 -9 3 -14 -1
-14 -12 0 -13 -2 -14 -9 -4 -6 11 -9 9 -13 -6 -4 -15 -16 -21 -47 -24 -23 -2
-42 1 -42 7 -1 5 -2 42 -3 80 -1 39 -4 75 -8 81 -10 16 -208 15 -214 0z"/>
<path d="M877 3222 c-41 -8 7 -163 75 -246 43 -53 141 -97 223 -101 152 -8
261 62 327 208 10 22 15 43 12 48 -3 5 -2 9 3 9 4 0 8 19 8 43 l0 42 -108 0
c-60 1 -111 -3 -113 -7 -3 -4 -11 -5 -19 -1 -8 3 -15 0 -15 -7 0 -6 5 -8 10
-5 6 3 10 3 11 -2 0 -4 2 -19 5 -32 3 -18 1 -22 -11 -17 -12 4 -15 -3 -15 -35
0 -35 -17 -69 -34 -69 -2 0 -7 12 -9 28 -3 23 -4 23 -3 -5 0 -18 -3 -35 -7
-39 -4 -4 -7 36 -7 89 0 54 -3 97 -7 97 -5 0 -7 -41 -7 -90 1 -50 -3 -93 -8
-96 -6 -4 -9 14 -8 42 3 95 0 144 -10 144 -6 0 -10 -38 -10 -92 0 -61 -4 -88
-9 -78 -6 8 -7 18 -5 22 3 4 -2 5 -10 2 -12 -5 -15 1 -12 28 1 18 -1 44 -5 58
l-7 25 -3 -25 c-1 -15 -4 -7 -8 20 l-6 45 -100 0 c-55 1 -108 -1 -118 -3z"/>
<path d="M1693 3166 c-25 -34 -52 -68 -61 -77 -48 -47 -55 -64 -58 -131 -2
-56 0 -68 14 -71 9 -2 141 -4 292 -3 l275 1 3 83 3 82 -151 0 c-82 0 -150 4
-150 8 0 5 11 22 25 38 57 64 95 125 83 128 -7 3 -62 4 -122 3 l-109 0 -44
-61z"/>
<path d="M2300 3210 c0 -8 24 -85 53 -170 l54 -155 89 -3 c120 -3 131 0 143
46 6 20 29 93 51 161 30 93 37 126 28 132 -15 10 -139 6 -155 -4 -7 -5 -13
-19 -13 -32 0 -39 -16 -37 -32 4 l-16 39 -101 -1 c-84 -1 -101 -4 -101 -17z"/>
<path d="M2903 3213 c-3 -8 -3 -57 -1 -109 7 -119 26 -151 116 -196 54 -27 74
-31 145 -32 127 -2 188 15 245 68 53 47 74 139 63 274 -1 15 -152 14 -163 -2
-4 -6 -8 -34 -8 -63 0 -28 -3 -59 -6 -68 -10 -24 -60 -46 -99 -43 -55 3 -74
31 -77 113 l-3 70 -103 2 c-83 1 -104 -2 -109 -14z"/>
<path d="M3589 3216 c-3 -41 -4 -304 -1 -318 4 -16 17 -18 103 -18 l99 0 0 84
c0 80 2 86 33 124 17 23 35 41 38 41 6 1 63 -113 99 -195 l21 -52 111 -1 c61
0 114 2 118 4 4 3 -17 53 -48 112 -30 60 -68 136 -85 170 l-30 62 -229 -1
c-164 0 -228 -3 -229 -12z"/>
<path d="M4415 3199 c11 -21 15 -65 15 -174 l0 -145 105 0 105 0 0 43 c1 111
7 264 11 282 4 19 -2 20 -123 21 l-127 2 14 -29z"/>
<path d="M423 3140 c0 -47 2 -66 4 -42 2 23 2 61 0 85 -2 23 -4 4 -4 -43z"/>
<path d="M451 3204 c0 -11 3 -14 6 -6 3 7 2 16 -1 19 -3 4 -6 -2 -5 -13z"/>
<path d="M1111 3204 c0 -11 3 -14 6 -6 3 7 2 16 -1 19 -3 4 -6 -2 -5 -13z"/>
<path d="M1253 3170 c0 -30 2 -43 4 -27 2 15 2 39 0 55 -2 15 -4 2 -4 -28z"/>
<path d="M501 3194 c0 -11 3 -14 6 -6 3 7 2 16 -1 19 -3 4 -6 -2 -5 -13z"/>
<path d="M1221 3194 c0 -11 3 -14 6 -6 3 7 2 16 -1 19 -3 4 -6 -2 -5 -13z"/>
<path d="M470 3190 c0 -5 5 -10 11 -10 5 0 7 5 4 10 -3 6 -8 10 -11 10 -2 0
-4 -4 -4 -10z"/>
<path d="M1135 3190 c3 -5 8 -10 11 -10 2 0 4 5 4 10 0 6 -5 10 -11 10 -5 0
-7 -4 -4 -10z"/>
<path d="M521 3174 c0 -11 3 -14 6 -6 3 7 2 16 -1 19 -3 4 -6 -2 -5 -13z"/>
<path d="M503 3135 c0 -22 2 -30 4 -17 2 12 2 30 0 40 -3 9 -5 -1 -4 -23z"/>
<path d="M1138 3147 c-3 -19 -2 -25 4 -19 6 6 8 18 6 28 -3 14 -5 12 -10 -9z"/>
<path d="M452 3130 c0 -14 2 -19 5 -12 2 6 2 18 0 25 -3 6 -5 1 -5 -13z"/>
<path d="M1220 3141 c0 -6 4 -13 10 -16 6 -3 7 1 4 9 -7 18 -14 21 -14 7z"/>
<path d="M470 3129 c0 -5 5 -7 10 -4 6 3 10 8 10 11 0 2 -4 4 -10 4 -5 0 -10
-5 -10 -11z"/>
<path d="M472 3085 c0 -16 2 -22 5 -12 2 9 2 23 0 30 -3 6 -5 -1 -5 -18z"/>
<path d="M1251 3094 c0 -11 3 -14 6 -6 3 7 2 16 -1 19 -3 4 -6 -2 -5 -13z"/>
<path d="M451 3084 c0 -11 3 -14 6 -6 3 7 2 16 -1 19 -3 4 -6 -2 -5 -13z"/>
<path d="M2238 2715 c-58 -30 -108 -58 -111 -62 -2 -4 2 -22 9 -39 l13 -32
113 40 c62 22 117 44 122 48 8 8 -22 100 -33 99 -3 0 -54 -24 -113 -54z"/>
<path d="M1392 2520 c-6 -4 -8 -246 -3 -298 1 -10 27 -12 108 -10 l108 3 0
153 c0 138 -1 152 -17 153 -82 4 -191 3 -196 -1z"/>
<path d="M1971 2518 c-16 -5 -18 -21 -17 -155 l1 -148 230 -3 231 -2 2 30 2
29 -127 3 -128 3 0 45 0 45 140 1 c77 1 148 2 158 3 15 1 17 12 17 76 0 71 -1
75 -22 76 -137 4 -473 3 -487 -3z"/>
<path d="M2523 2522 c-21 -3 -22 -8 -20 -83 l2 -79 73 0 72 0 0 -75 0 -75 100
0 c59 0 101 4 101 10 1 6 2 38 3 73 l1 62 70 5 70 5 3 78 c2 57 0 77 -10 78
-42 3 -447 3 -465 1z"/>
<path d="M3180 2513 c-10 -7 -21 -25 -24 -40 -8 -34 -43 -151 -62 -211 -8 -23
-14 -45 -14 -47 0 -3 36 -5 80 -5 l80 0 11 45 c6 25 15 48 19 50 5 3 13 -18
20 -45 l12 -50 97 0 c54 0 100 2 102 4 5 5 -87 295 -95 304 -12 11 -209 7
-226 -5z"/>
<path d="M1389 2188 c0 -2 -2 -83 -2 -180 -2 -150 0 -177 13 -180 13 -3 410
-2 463 1 16 1 17 10 15 84 l-3 82 -135 5 -135 5 0 90 0 90 -108 3 c-59 1 -107
1 -108 0z"/>
<path d="M1957 2183 c-2 -5 -4 -87 -3 -183 l1 -175 245 0 c135 0 253 2 263 4
14 3 17 15 17 87 l0 83 -82 0 c-46 0 -117 0 -159 0 l-77 1 2 53 1 52 128 3
127 3 -3 37 -2 37 -227 3 c-125 1 -229 -1 -231 -5z"/>
<path d="M2650 2011 c0 -134 3 -180 13 -183 16 -6 173 -1 184 5 4 3 8 83 8
179 l-1 173 -102 3 -102 3 0 -180z"/>
<path d="M3051 2120 c-12 -38 -24 -78 -26 -87 -2 -10 -17 -59 -33 -110 -20
-61 -26 -93 -18 -96 9 -3 128 -1 158 2 4 1 15 27 24 59 9 31 20 62 25 68 7 8
145 13 181 5 3 0 10 -16 14 -33 4 -18 8 -35 9 -38 14 -49 19 -60 29 -61 69 -6
199 -2 203 6 3 10 -21 92 -86 295 l-18 55 -88 3 c-111 4 -116 2 -105 -37 l9
-31 -55 0 -55 0 7 35 6 35 -79 0 -79 0 -23 -70z"/>
<path d="M3875 1593 l0 -348 75 0 c41 0 82 1 90 3 14 3 16 46 15 348 l0 344
-90 0 -91 0 1 -347z m93 267 c8 -16 17 -30 21 -30 4 0 6 14 3 30 -4 25 -1 30
17 30 19 0 21 -5 21 -74 0 -68 -2 -75 -19 -73 -11 1 -29 17 -41 39 -24 43 -27
45 -27 21 0 -49 -4 -63 -18 -63 -17 0 -17 0 -19 88 -2 60 -1 62 24 62 18 0 29
-8 38 -30z m27 -199 c-7 -12 -45 -21 -45 -11 0 12 33 30 42 23 5 -2 6 -8 3
-12z m17 -96 c10 -33 18 -65 18 -72 0 -14 -26 -11 -42 5 -16 16 -39 15 -52 -3
-6 -8 -16 -11 -23 -7 -8 5 -6 25 10 75 19 62 23 68 46 65 21 -3 28 -12 43 -63z
m-1 -156 c16 -8 18 -13 9 -24 -9 -11 -17 -12 -30 -5 -23 12 -30 13 -30 2 0 -4
16 -14 35 -21 45 -16 49 -53 7 -75 -23 -12 -32 -12 -60 -1 -41 18 -42 39 -2
33 17 -3 34 0 37 6 3 6 3 8 -2 4 -4 -4 -21 0 -36 9 -69 41 1 111 72 72z"/>
<path d="M3953 1555 c0 -8 4 -15 9 -15 4 0 8 7 8 15 0 8 -4 15 -8 15 -5 0 -9
-7 -9 -15z"/>
<path d="M3454 1661 c-2 -2 -4 -97 -4 -210 l0 -206 87 0 88 1 3 206 2 207 -86
3 c-47 2 -88 1 -90 -1z m130 -47 c9 -8 16 -18 17 -22 0 -4 2 -20 4 -36 3 -20
-3 -35 -20 -52 -30 -30 -64 -31 -94 -3 -18 17 -22 29 -18 61 3 22 13 45 23 53
25 19 69 19 88 -1z m-4 -214 c11 -11 21 -23 21 -27 8 -43 4 -55 -22 -74 -20
-14 -41 -19 -66 -17 l-38 3 -1 68 0 67 43 0 c30 0 49 -6 63 -20z"/>
<path d="M3527 1593 c-4 -3 -7 -21 -7 -38 0 -17 3 -35 7 -38 11 -11 33 14 33
38 0 24 -22 49 -33 38z"/>
<path d="M3526 1383 c-8 -8 -8 -58 1 -66 12 -13 30 13 25 38 -5 27 -15 38 -26
28z"/>
<path d="M3117 1623 c-3 -5 -4 -37 -3 -73 1 -57 3 -65 21 -65 12 0 21 9 25 24
4 16 14 25 30 28 44 6 57 43 27 81 -10 13 -93 17 -100 5z m67 -29 c18 -7 12
-24 -10 -24 -8 0 -14 7 -14 15 0 17 2 18 24 9z"/>
<path d="M3292 1563 c1 -38 6 -71 11 -75 17 -11 36 3 32 23 -5 26 10 24 29 -5
10 -17 22 -23 35 -19 17 4 19 9 10 25 -8 15 -8 27 0 42 13 26 9 55 -10 67 -8
5 -35 9 -61 9 l-47 0 1 -67z m78 22 c0 -8 -7 -15 -15 -15 -8 0 -15 7 -15 15 0
8 7 15 15 15 8 0 15 -7 15 -15z"/>
<path d="M3734 1603 c22 -91 28 -104 49 -112 12 -5 25 -7 29 -4 10 5 50 135
44 141 -13 12 -35 -11 -48 -50 l-14 -42 -12 47 c-10 37 -17 47 -33 47 -18 0
-20 -4 -15 -27z"/>
<path d="M4098 1619 c-10 -5 -18 -21 -18 -35 0 -19 9 -29 40 -43 43 -19 45
-36 2 -20 -34 13 -59 4 -42 -15 32 -39 120 -21 120 24 0 22 -35 50 -63 50 -10
0 -16 4 -12 9 3 5 22 7 43 4 l37 -6 -19 21 c-20 23 -60 28 -88 11z"/>
<path d="M173 1553 c10 -9 2857 -10 2857 -1 0 5 -644 8 -1432 8 -787 0 -1428
-3 -1425 -7z"/>
</g>
</svg>
